<?xml version="1.0" encoding="iso-8859-1"?>
<!-- Generator: Adobe Illustrator 16.0.0, SVG Export Plug-In . SVG Version: 6.00 Build 0)  -->
<!DOCTYPE svg PUBLIC "-//W3C//DTD SVG 1.1//EN" "http://www.w3.org/Graphics/SVG/1.1/DTD/svg11.dtd">
<svg version="1.1" id="Capa_1" xmlns="http://www.w3.org/2000/svg" xmlns:xlink="http://www.w3.org/1999/xlink" x="0px" y="0px"
	 width="612px" height="612px" viewBox="0 0 612 612" style="enable-background:new 0 0 612 612;" xml:space="preserve">
<g>
	<g>
		<g>
			<path d="M306.021,612C137.294,612,0.014,474.726,0.003,305.994C0.003,137.269,137.272,0,305.997,0
				c168.725,0,306,137.269,306,305.994C611.997,474.719,474.74,612,306.021,612z M305.997,28.386
				c-153.068,0-277.608,124.541-277.608,277.608c0.012,153.08,124.552,277.614,277.62,277.614h0.012
				c153.067,0,277.598-124.54,277.598-277.614C583.617,152.926,459.077,28.386,305.997,28.386z"/>
			<g>
				<path d="M306.009,446.346l-105.13-90.591c-5.938-5.115-6.603-14.074-1.487-20.012c5.121-5.938,14.08-6.599,20.012-1.488
					l86.605,74.627l86.594-74.627c5.934-5.108,14.902-4.45,20.013,1.488c5.114,5.938,4.45,14.896-1.487,20.012L306.009,446.346z"/>
				<path d="M306.009,441.804c-7.84,0-14.193-6.353-14.193-14.191V184.389c0-7.84,6.353-14.193,14.193-14.193
					s14.192,6.353,14.192,14.193v243.222C320.201,435.451,313.849,441.804,306.009,441.804z"/>
			</g>
		</g>
	</g>
</g>
<g>
</g>
<g>
</g>
<g>
</g>
<g>
</g>
<g>
</g>
<g>
</g>
<g>
</g>
<g>
</g>
<g>
</g>
<g>
</g>
<g>
</g>
<g>
</g>
<g>
</g>
<g>
</g>
<g>
</g>
</svg>
